<svg xmlns="http://www.w3.org/2000/svg" xmlns:xlink="http://www.w3.org/1999/xlink" xmlns:a="http://ns.adobe.com/AdobeSVGViewerExtensions/3.0/" version="1.1" x="0px" y="0px" viewBox="-5.807 -5.556 100 125" overflow="visible" enable-background="new -5.807 -5.556 100 100" xml:space="preserve"><path d="M43.097,0C19.295,0,0,19.295,0,43.097c0,23.802,19.295,43.097,43.097,43.097s43.097-19.295,43.097-43.097  C86.193,19.295,66.898,0,43.097,0z M43.097,82.446c-21.732,0-39.35-17.487-39.35-39.061S21.364,4.324,43.097,4.324  c21.731,0,39.349,17.488,39.349,39.062S64.828,82.446,43.097,82.446z"/><rect x="0.193" y="41.444" width="21" height="1"/><rect x="64.193" y="41.444" width="21" height="1"/><rect x="42.193" y="63.444" width="1" height="21"/><rect x="42.193" y="1.444" width="1" height="21"/><ellipse cx="62.63" cy="41.87" rx="0.688" ry="0.427"/><ellipse cx="53.689" cy="41.87" rx="0.688" ry="0.427"/><ellipse cx="44.748" cy="41.87" rx="0.688" ry="0.427"/><ellipse cx="33.572" cy="41.87" rx="0.688" ry="0.427"/><ellipse cx="40.278" cy="41.87" rx="0.688" ry="0.427"/><ellipse cx="42.513" cy="41.87" rx="0.688" ry="0.427"/><ellipse cx="46.983" cy="41.87" rx="0.688" ry="0.427"/><ellipse cx="51.63" cy="41.87" rx="0.688" ry="0.427"/><ellipse cx="55.924" cy="41.87" rx="0.688" ry="0.427"/><ellipse cx="58.16" cy="41.87" rx="0.688" ry="0.427"/><ellipse cx="60.63" cy="41.87" rx="0.688" ry="0.427"/><ellipse cx="31.336" cy="41.87" rx="0.688" ry="0.427"/><ellipse cx="26.866" cy="41.87" rx="0.688" ry="0.427"/><ellipse cx="29.101" cy="41.87" rx="0.688" ry="0.427"/><ellipse cx="24.63" cy="41.87" rx="0.688" ry="0.427"/><ellipse cx="49.63" cy="41.87" rx="0.688" ry="0.427"/><ellipse cx="38.042" cy="41.87" rx="0.688" ry="0.427"/><ellipse cx="35.807" cy="41.87" rx="0.688" ry="0.427"/><ellipse cx="22.63" cy="41.87" rx="0.688" ry="0.427"/><ellipse cx="42.631" cy="23.87" rx="0.426" ry="0.688"/><ellipse cx="42.631" cy="32.812" rx="0.426" ry="0.688"/><ellipse cx="42.631" cy="52.929" rx="0.426" ry="0.688"/><ellipse cx="42.631" cy="46.223" rx="0.426" ry="0.688"/><ellipse cx="42.631" cy="43.988" rx="0.426" ry="0.688"/><ellipse cx="42.631" cy="39.518" rx="0.426" ry="0.688"/><ellipse cx="42.631" cy="34.87" rx="0.426" ry="0.688"/><ellipse cx="42.631" cy="30.576" rx="0.426" ry="0.688"/><ellipse cx="42.631" cy="28.341" rx="0.426" ry="0.688"/><ellipse cx="42.631" cy="25.87" rx="0.426" ry="0.688"/><ellipse cx="42.631" cy="55.164" rx="0.426" ry="0.688"/><ellipse cx="42.631" cy="59.635" rx="0.426" ry="0.688"/><ellipse cx="42.631" cy="57.399" rx="0.426" ry="0.688"/><ellipse cx="42.631" cy="61.87" rx="0.426" ry="0.688"/><ellipse cx="42.631" cy="36.87" rx="0.426" ry="0.688"/><ellipse cx="42.631" cy="48.458" rx="0.426" ry="0.688"/><ellipse cx="42.631" cy="50.693" rx="0.426" ry="0.688"/><ellipse cx="42.631" cy="63.87" rx="0.426" ry="0.688"/><rect x="41.193" y="73.444" width="3" height="12"/><rect x="41.193" y="1.444" width="3" height="12"/><rect x="73.193" y="40.444" width="12" height="3"/><rect x="1.193" y="40.444" width="12" height="3"/><text x="-5.807" y="109.444" fill="#000000" font-size="5px" font-weight="bold" font-family="'Helvetica Neue', Helvetica, Arial-Unicode, Arial, Sans-serif">Created by Hayden Kerrisk</text><text x="-5.807" y="114.444" fill="#000000" font-size="5px" font-weight="bold" font-family="'Helvetica Neue', Helvetica, Arial-Unicode, Arial, Sans-serif">from the Noun Project</text></svg>